%FSLAX46Y46*%
%MOMM*%
%AMPS69*
21,1,1.040000,1.740000,0.000000,0.000000,180.000000*
%
%ADD69PS69*%
%AMPS35*
1,1,0.390000,0.000000,0.000000*
%
%ADD35PS35*%
%AMPS54*
1,1,2.140000,0.000000,0.000000*
%
%ADD54PS54*%
%AMPS53*
1,1,2.840000,0.000000,0.000000*
%
%ADD53PS53*%
%AMPS87*
1,1,2.140000,0.000000,0.000000*
%
%ADD87PS87*%
%AMPS15*
1,1,6.590000,0.000000,0.000000*
%
%ADD15PS15*%
%AMPS84*
21,1,0.640000,1.390000,0.000000,0.000000,270.000000*
%
%ADD84PS84*%
%AMPS46*
21,1,0.740000,1.840000,0.000000,0.000000,90.000000*
%
%ADD46PS46*%
%AMPS33*
21,1,0.590000,1.590000,0.000000,0.000000,0.000000*
%
%ADD33PS33*%
%AMPS32*
21,1,0.590000,1.590000,0.000000,0.000000,180.000000*
%
%ADD32PS32*%
%AMPS75*
21,1,1.040000,0.740000,0.000000,0.000000,270.000000*
%
%ADD75PS75*%
%AMPS51*
21,1,0.490000,0.840000,0.000000,0.000000,0.000000*
%
%ADD51PS51*%
%AMPS48*
21,1,0.490000,0.840000,0.000000,0.000000,90.000000*
%
%ADD48PS48*%
%AMPS49*
21,1,0.490000,0.840000,0.000000,0.000000,180.000000*
%
%ADD49PS49*%
%AMPS52*
21,1,0.490000,0.840000,0.000000,0.000000,270.000000*
%
%ADD52PS52*%
%AMPS56*
21,1,2.782000,2.782000,0.000000,0.000000,270.000000*
%
%ADD56PS56*%
%AMPS31*
21,1,0.790000,0.990000,0.000000,0.000000,270.000000*
%
%ADD31PS31*%
%AMPS77*
21,1,0.572000,1.664000,0.000000,0.000000,0.000000*
%
%ADD77PS77*%
%AMPS76*
21,1,0.572000,1.664000,0.000000,0.000000,180.000000*
%
%ADD76PS76*%
%AMPS55*
21,1,5.640000,4.140000,0.000000,0.000000,90.000000*
%
%ADD55PS55*%
%AMPS13*
21,1,2.640000,1.940000,0.000000,0.000000,180.000000*
%
%ADD13PS13*%
%AMPS45*
21,1,0.740000,0.790000,0.000000,0.000000,90.000000*
%
%ADD45PS45*%
%AMPS27*
21,1,0.740000,0.790000,0.000000,0.000000,270.000000*
%
%ADD27PS27*%
%AMPS25*
21,1,1.050000,1.360000,0.000000,0.000000,0.000000*
%
%ADD25PS25*%
%AMPS72*
21,1,1.050000,1.360000,0.000000,0.000000,180.000000*
%
%ADD72PS72*%
%AMPS40*
21,1,1.740000,1.840000,0.000000,0.000000,90.000000*
%
%ADD40PS40*%
%AMPS39*
21,1,1.740000,1.840000,0.000000,0.000000,270.000000*
%
%ADD39PS39*%
%AMPS71*
21,1,0.560000,1.029000,0.000000,0.000000,0.000000*
%
%ADD71PS71*%
%AMPS42*
21,1,0.560000,1.029000,0.000000,0.000000,90.000000*
%
%ADD42PS42*%
%AMPS70*
21,1,0.560000,1.029000,0.000000,0.000000,180.000000*
%
%ADD70PS70*%
%AMPS41*
21,1,0.560000,1.029000,0.000000,0.000000,270.000000*
%
%ADD41PS41*%
%AMPS59*
21,1,0.900000,1.410000,0.000000,0.000000,180.000000*
%
%ADD59PS59*%
%AMPS22*
21,1,0.440000,0.640000,0.000000,0.000000,90.000000*
%
%ADD22PS22*%
%AMPS21*
21,1,0.440000,0.640000,0.000000,0.000000,270.000000*
%
%ADD21PS21*%
%AMPS28*
21,1,0.390000,0.740000,0.000000,0.000000,0.000000*
%
%ADD28PS28*%
%AMPS29*
21,1,0.390000,0.740000,0.000000,0.000000,180.000000*
%
%ADD29PS29*%
%AMPS19*
21,1,1.893000,2.629000,0.000000,0.000000,0.000000*
%
%ADD19PS19*%
%AMPS44*
21,1,0.440000,2.540000,0.000000,0.000000,90.000000*
%
%ADD44PS44*%
%AMPS26*
21,1,0.440000,2.540000,0.000000,0.000000,270.000000*
%
%ADD26PS26*%
%AMPS50*
21,1,3.640000,3.640000,0.000000,0.000000,90.000000*
%
%ADD50PS50*%
%AMPS47*
21,1,1.140000,2.940000,0.000000,0.000000,90.000000*
%
%ADD47PS47*%
%AMPS89*
21,1,0.590000,1.190000,0.000000,0.000000,90.000000*
%
%ADD89PS89*%
%AMPS90*
21,1,0.590000,1.190000,0.000000,0.000000,270.000000*
%
%ADD90PS90*%
%AMPS63*
21,1,0.740000,1.280000,0.000000,0.000000,270.000000*
%
%ADD63PS63*%
%AMPS80*
21,1,0.440000,1.340000,0.000000,0.000000,0.000000*
%
%ADD80PS80*%
%AMPS82*
21,1,0.440000,1.340000,0.000000,0.000000,90.000000*
%
%ADD82PS82*%
%AMPS83*
21,1,0.440000,1.340000,0.000000,0.000000,180.000000*
%
%ADD83PS83*%
%AMPS81*
21,1,0.440000,1.340000,0.000000,0.000000,270.000000*
%
%ADD81PS81*%
%AMPS58*
21,1,0.394000,0.953000,0.000000,0.000000,0.000000*
%
%ADD58PS58*%
%AMPS17*
21,1,0.394000,0.953000,0.000000,0.000000,90.000000*
%
%ADD17PS17*%
%AMPS57*
21,1,0.394000,0.953000,0.000000,0.000000,180.000000*
%
%ADD57PS57*%
%AMPS18*
21,1,0.394000,0.953000,0.000000,0.000000,270.000000*
%
%ADD18PS18*%
%AMPS60*
21,1,0.840000,1.140000,0.000000,0.000000,270.000000*
%
%ADD60PS60*%
%AMPS61*
21,1,0.440000,1.280000,0.000000,0.000000,270.000000*
%
%ADD61PS61*%
%AMPS66*
21,1,0.940000,2.490000,0.000000,0.000000,0.000000*
%
%ADD66PS66*%
%AMPS78*
21,1,0.740000,1.690000,0.000000,0.000000,0.000000*
%
%ADD78PS78*%
%AMPS79*
21,1,0.740000,1.690000,0.000000,0.000000,180.000000*
%
%ADD79PS79*%
%AMPS37*
21,1,0.740000,1.240000,0.000000,0.000000,90.000000*
%
%ADD37PS37*%
%AMPS36*
21,1,0.740000,1.240000,0.000000,0.000000,270.000000*
%
%ADD36PS36*%
%AMPS65*
21,1,1.100000,1.140000,0.000000,0.000000,0.000000*
1,1,1.140000,0.550000,0.000000*
1,1,1.140000,-0.550000,0.000000*
%
%ADD65PS65*%
%AMPS62*
21,1,0.800000,1.140000,0.000000,0.000000,0.000000*
1,1,1.140000,0.400000,0.000000*
1,1,1.140000,-0.400000,0.000000*
%
%ADD62PS62*%
%AMPS38*
1,1,1.470000,0.000000,0.000000*
%
%ADD38PS38*%
%AMPS64*
1,1,0.850000,0.000000,0.000000*
%
%ADD64PS64*%
%AMPS74*
1,1,1.190600,0.000000,0.000000*
%
%ADD74PS74*%
%AMPS88*
1,1,2.600000,0.000000,0.000000*
%
%ADD88PS88*%
%AMPS85*
4,1,16,
-2.220000,2.155000,
2.220000,2.155000,
2.220000,1.655000,
1.410000,1.655000,
1.410000,0.885000,
2.220000,0.885000,
2.220000,0.385000,
1.410000,0.385000,
1.410000,-0.385000,
2.220000,-0.385000,
2.220000,-0.885000,
1.410000,-0.885000,
1.410000,-1.655000,
2.220000,-1.655000,
2.220000,-2.155000,
-2.220000,-2.155000,
-2.220000,2.155000,
0*
%
%ADD85PS85*%
%AMPS24*
1,1,0.500000,-0.220000,0.195000*
1,1,0.500000,0.220000,-0.195000*
1,1,0.500000,0.220000,0.195000*
1,1,0.500000,-0.220000,-0.195000*
21,1,0.940000,0.390000,0.000000,0.000000,0.000000*
21,1,0.440000,0.890000,0.000000,0.000000,0.000000*
%
%ADD24PS24*%
%AMPS10*
1,1,0.500000,-0.195000,-0.220000*
1,1,0.500000,0.195000,0.220000*
1,1,0.500000,-0.195000,0.220000*
1,1,0.500000,0.195000,-0.220000*
21,1,0.940000,0.390000,0.000000,0.000000,90.000000*
21,1,0.440000,0.890000,0.000000,0.000000,90.000000*
%
%ADD10PS10*%
%AMPS12*
1,1,0.500000,0.220000,-0.195000*
1,1,0.500000,-0.220000,0.195000*
1,1,0.500000,-0.220000,-0.195000*
1,1,0.500000,0.220000,0.195000*
21,1,0.940000,0.390000,0.000000,0.000000,180.000000*
21,1,0.440000,0.890000,0.000000,0.000000,180.000000*
%
%ADD12PS12*%
%AMPS30*
1,1,0.500000,0.195000,0.220000*
1,1,0.500000,-0.195000,-0.220000*
1,1,0.500000,0.195000,-0.220000*
1,1,0.500000,-0.195000,0.220000*
21,1,0.940000,0.390000,0.000000,0.000000,270.000000*
21,1,0.440000,0.890000,0.000000,0.000000,270.000000*
%
%ADD30PS30*%
%AMPS11*
1,1,0.380000,-0.130000,0.330000*
1,1,0.380000,0.130000,-0.330000*
1,1,0.380000,0.130000,0.330000*
1,1,0.380000,-0.130000,-0.330000*
21,1,0.640000,0.660000,0.000000,0.000000,0.000000*
21,1,0.260000,1.040000,0.000000,0.000000,0.000000*
%
%ADD11PS11*%
%AMPS23*
1,1,0.380000,-0.330000,-0.130000*
1,1,0.380000,0.330000,0.130000*
1,1,0.380000,-0.330000,0.130000*
1,1,0.380000,0.330000,-0.130000*
21,1,0.640000,0.660000,0.000000,0.000000,90.000000*
21,1,0.260000,1.040000,0.000000,0.000000,90.000000*
%
%ADD23PS23*%
%AMPS20*
1,1,0.380000,0.130000,-0.330000*
1,1,0.380000,-0.130000,0.330000*
1,1,0.380000,-0.130000,-0.330000*
1,1,0.380000,0.130000,0.330000*
21,1,0.640000,0.660000,0.000000,0.000000,180.000000*
21,1,0.260000,1.040000,0.000000,0.000000,180.000000*
%
%ADD20PS20*%
%AMPS14*
1,1,0.380000,0.330000,0.130000*
1,1,0.380000,-0.330000,-0.130000*
1,1,0.380000,0.330000,-0.130000*
1,1,0.380000,-0.330000,0.130000*
21,1,0.640000,0.660000,0.000000,0.000000,270.000000*
21,1,0.260000,1.040000,0.000000,0.000000,270.000000*
%
%ADD14PS14*%
%AMPS67*
1,1,0.240000,-0.200000,-0.075000*
1,1,0.240000,0.200000,0.075000*
1,1,0.240000,-0.200000,0.075000*
1,1,0.240000,0.200000,-0.075000*
21,1,0.390000,0.400000,0.000000,0.000000,90.000000*
21,1,0.150000,0.640000,0.000000,0.000000,90.000000*
%
%ADD67PS67*%
%AMPS68*
1,1,0.240000,0.200000,0.075000*
1,1,0.240000,-0.200000,-0.075000*
1,1,0.240000,0.200000,-0.075000*
1,1,0.240000,-0.200000,0.075000*
21,1,0.390000,0.400000,0.000000,0.000000,270.000000*
21,1,0.150000,0.640000,0.000000,0.000000,270.000000*
%
%ADD68PS68*%
%AMPS16*
1,1,0.480000,0.480000,0.180000*
1,1,0.480000,-0.480000,-0.180000*
1,1,0.480000,0.480000,-0.180000*
1,1,0.480000,-0.480000,0.180000*
21,1,0.840000,0.960000,0.000000,0.000000,270.000000*
21,1,0.360000,1.440000,0.000000,0.000000,270.000000*
%
%ADD16PS16*%
%AMPS86*
21,1,2.140000,2.140000,0.000000,0.000000,90.000000*
%
%ADD86PS86*%
%AMPS91*
21,1,2.940000,5.150000,0.000000,0.000000,0.000000*
%
%ADD91PS91*%
%AMPS43*
21,1,1.851000,3.045000,0.000000,0.000000,0.000000*
%
%ADD43PS43*%
%AMPS34*
1,1,1.140000,0.000000,0.000000*
%
%ADD34PS34*%
%AMPS73*
1,1,0.927400,0.000000,0.000000*
%
%ADD73PS73*%
G01*
%LPD*%
G01*
%LPD*%
G75*
D10*
X38500000Y4750000D03*
D10*
X38500000Y3250000D03*
D11*
X9750000Y-2000000D03*
D11*
X11250000Y-2000000D03*
D11*
X66250000Y4750000D03*
D11*
X67750000Y4750000D03*
D12*
X34500000Y-15500000D03*
D12*
X36000000Y-15500000D03*
D13*
X3500000Y7000000D03*
D13*
X7500000Y7000000D03*
D12*
X75500000Y4000000D03*
D12*
X77000000Y4000000D03*
D14*
X52000000Y2000000D03*
D14*
X52000000Y500000D03*
D11*
X9750000Y2000000D03*
D11*
X11250000Y2000000D03*
D15*
X3499999Y-28500000D03*
D11*
X7750000Y-7250000D03*
D11*
X9250000Y-7250000D03*
D16*
X115750000Y-10050000D03*
D16*
X115750000Y-11950000D03*
D17*
X39698000Y-8000000D03*
D18*
X36802000Y-7500000D03*
D18*
X36802000Y-6500000D03*
D19*
X38250000Y-7500000D03*
D17*
X39698000Y-8500000D03*
D18*
X36802000Y-7000000D03*
D18*
X36802000Y-8500000D03*
D17*
X39698000Y-6500000D03*
D17*
X39698000Y-7000000D03*
D17*
X39698000Y-7500000D03*
D18*
X36802000Y-8000000D03*
D14*
X72500000Y-10000000D03*
D14*
X72500000Y-11500000D03*
D20*
X82750000Y6500000D03*
D20*
X81250000Y6500000D03*
D11*
X7500000Y-4250000D03*
D11*
X9000000Y-4250000D03*
D21*
X8550000Y0D03*
D22*
X9950000Y-500000D03*
D21*
X8550000Y-500000D03*
D21*
X8550000Y500000D03*
D22*
X9950000Y0D03*
D22*
X9950000Y500000D03*
D23*
X43250000Y-26250000D03*
D23*
X43250000Y-24750000D03*
D24*
X50285710Y-18000000D03*
D24*
X48785710Y-18000000D03*
D24*
X50250000Y4500000D03*
D24*
X48750000Y4500000D03*
D14*
X44250000Y-1750000D03*
D14*
X44250000Y-3250000D03*
D25*
X34615000Y14750000D03*
D25*
X37885000Y14750000D03*
D24*
X39000000Y-15500000D03*
D24*
X37500000Y-15500000D03*
D20*
X11750000Y5500000D03*
D20*
X10250000Y5500000D03*
D23*
X77000000Y-2750000D03*
D23*
X77000000Y-1250000D03*
D26*
X11000000Y13750000D03*
D27*
X11875000Y13100000D03*
D27*
X11875000Y14900000D03*
D26*
X11000000Y14250000D03*
D28*
X10775000Y13100000D03*
D28*
X11225000Y13100000D03*
D27*
X10125000Y14900000D03*
D29*
X10775000Y14900000D03*
D29*
X11225000Y14900000D03*
D27*
X10125000Y13100000D03*
D30*
X45750000Y22750000D03*
D30*
X45750000Y24250000D03*
D10*
X34750000Y4750000D03*
D10*
X34750000Y3250000D03*
D31*
X27937500Y-25487500D03*
D31*
X29487500Y-25487500D03*
D31*
X29487500Y-23837500D03*
D31*
X27937500Y-23837500D03*
D23*
X7750000Y19750000D03*
D23*
X7750000Y21250000D03*
D30*
X18414048Y3080692D03*
D30*
X18414048Y4580692D03*
D24*
X80000000Y-4500000D03*
D24*
X78500000Y-4500000D03*
D32*
X48560710Y-11800000D03*
D33*
X49210710Y-16200000D03*
D33*
X48560710Y-16200000D03*
D33*
X50510710Y-16200000D03*
D32*
X49210710Y-11800000D03*
D33*
X49860710Y-16200000D03*
D32*
X49860710Y-11800000D03*
D32*
X50510710Y-11800000D03*
D11*
X63000000Y4750000D03*
D11*
X64500000Y4750000D03*
D34*
X47250000Y13500000D03*
D20*
X47000000Y-500000D03*
D20*
X45500000Y-500000D03*
D11*
X10000000Y-4250000D03*
D11*
X11500000Y-4250000D03*
D10*
X17750000Y-7000000D03*
D10*
X17750000Y-8500000D03*
D23*
X45750000Y20000000D03*
D23*
X45750000Y21500000D03*
D10*
X37250000Y4750000D03*
D10*
X37250000Y3250000D03*
D14*
X74000000Y-10000000D03*
D14*
X74000000Y-11500000D03*
D24*
X38500000Y-10000000D03*
D24*
X37000000Y-10000000D03*
D30*
X62250000Y-3000000D03*
D30*
X62250000Y-1500000D03*
D10*
X41750000Y2500000D03*
D10*
X41750000Y1000000D03*
D35*
X46750000Y-4000000D03*
D35*
X47250000Y-4500000D03*
D35*
X47250000Y-4000000D03*
D35*
X46750000Y-4500000D03*
D36*
X15700000Y12700000D03*
D37*
X18300000Y11750000D03*
D37*
X18300000Y12700000D03*
D36*
X15700000Y10800000D03*
D37*
X18300000Y10800000D03*
D36*
X15700000Y11750000D03*
D38*
X5500000Y-6730000D03*
D38*
X5500000Y-9270000D03*
D24*
X67500000Y-10750000D03*
D24*
X66000000Y-10750000D03*
D39*
X21850000Y19500000D03*
D39*
X21850000Y23500000D03*
D40*
X32650000Y21500000D03*
D39*
X21850000Y21500000D03*
D40*
X32650000Y25500000D03*
D39*
X21850000Y25500000D03*
D40*
X32650000Y23500000D03*
D40*
X32650000Y19500000D03*
D10*
X47000000Y2500000D03*
D10*
X47000000Y1000000D03*
D10*
X69250000Y3000000D03*
D10*
X69250000Y1500000D03*
D10*
X41500000Y-11000000D03*
D10*
X41500000Y-12500000D03*
D36*
X15700000Y23450000D03*
D37*
X18300000Y22500000D03*
D37*
X18300000Y23450000D03*
D36*
X15700000Y21550000D03*
D37*
X18300000Y21550000D03*
D36*
X15700000Y22500000D03*
D24*
X88250000Y-750000D03*
D24*
X86750000Y-750000D03*
D23*
X69500000Y-15750000D03*
D23*
X69500000Y-14250000D03*
D14*
X7750000Y16250000D03*
D14*
X7750000Y14750000D03*
D12*
X48785710Y-10000000D03*
D12*
X50285710Y-10000000D03*
D41*
X39893000Y11425000D03*
D42*
X44107000Y11425000D03*
D41*
X39893000Y12075000D03*
D41*
X39893000Y13375000D03*
D41*
X39893000Y10775000D03*
D42*
X44107000Y10775000D03*
D42*
X44107000Y13375000D03*
D42*
X44107000Y12725000D03*
D42*
X44107000Y12075000D03*
D41*
X39893000Y12725000D03*
D42*
X44107000Y10125000D03*
D41*
X39893000Y10125000D03*
D43*
X42000000Y11750000D03*
D20*
X48750000Y-5750000D03*
D20*
X47250000Y-5750000D03*
D41*
X39893000Y22175000D03*
D42*
X44107000Y22175000D03*
D41*
X39893000Y22825000D03*
D41*
X39893000Y24125000D03*
D41*
X39893000Y21525000D03*
D42*
X44107000Y21525000D03*
D42*
X44107000Y24125000D03*
D42*
X44107000Y23475000D03*
D42*
X44107000Y22825000D03*
D41*
X39893000Y23475000D03*
D42*
X44107000Y20875000D03*
D41*
X39893000Y20875000D03*
D43*
X42000000Y22500000D03*
D11*
X7750000Y-5750000D03*
D11*
X9250000Y-5750000D03*
D44*
X11013543Y8153055D03*
D45*
X10138543Y8803055D03*
D45*
X10138543Y7003055D03*
D44*
X11013543Y7653055D03*
D29*
X11238543Y8803055D03*
D29*
X10788543Y8803055D03*
D45*
X11888543Y7003055D03*
D28*
X11238543Y7003055D03*
D28*
X10788543Y7003055D03*
D45*
X11888543Y8803055D03*
D46*
X26250000Y-21000000D03*
D46*
X26250000Y-17000000D03*
D47*
X21100000Y-22100000D03*
D46*
X26250000Y-20000000D03*
D46*
X26250000Y-15000000D03*
D46*
X26250000Y-19000000D03*
D47*
X21100000Y-13900000D03*
D46*
X26250000Y-18000000D03*
D46*
X26250000Y-16000000D03*
D11*
X63000000Y-4750000D03*
D11*
X64500000Y-4750000D03*
D34*
X47250000Y24250000D03*
D23*
X44500000Y-17750000D03*
D23*
X44500000Y-16250000D03*
D10*
X47250000Y10750000D03*
D10*
X47250000Y9250000D03*
D10*
X36000000Y4750000D03*
D10*
X36000000Y3250000D03*
D48*
X40650000Y-21000000D03*
D49*
X39500000Y-17350000D03*
D50*
X38250000Y-19750000D03*
D51*
X39500000Y-22150000D03*
D49*
X39000000Y-17350000D03*
D52*
X35850000Y-20000000D03*
D51*
X37500000Y-22150000D03*
D49*
X40000000Y-17350000D03*
D51*
X38000000Y-22150000D03*
D52*
X35850000Y-21500000D03*
D48*
X40650000Y-21500000D03*
D52*
X35850000Y-19000000D03*
D51*
X38500000Y-22150000D03*
D52*
X35850000Y-21000000D03*
D49*
X37000000Y-17350000D03*
D52*
X35850000Y-18000000D03*
D48*
X40650000Y-18000000D03*
D48*
X40650000Y-19500000D03*
D52*
X35850000Y-20500000D03*
D48*
X40650000Y-18500000D03*
D49*
X37500000Y-17350000D03*
D51*
X39000000Y-22150000D03*
D48*
X40650000Y-20500000D03*
D51*
X36500000Y-22150000D03*
D48*
X40650000Y-19000000D03*
D51*
X37000000Y-22150000D03*
D52*
X35850000Y-18500000D03*
D52*
X35850000Y-19500000D03*
D49*
X36500000Y-17350000D03*
D49*
X38000000Y-17350000D03*
D51*
X40000000Y-22150000D03*
D48*
X40650000Y-20000000D03*
D49*
X38500000Y-17350000D03*
D11*
X2500000Y24000000D03*
D11*
X4000000Y24000000D03*
D11*
X10250000Y16500000D03*
D11*
X11750000Y16500000D03*
D24*
X38500000Y-5000000D03*
D24*
X37000000Y-5000000D03*
D24*
X37750000Y-23750000D03*
D24*
X36250000Y-23750000D03*
D12*
X34250000Y2000000D03*
D12*
X35750000Y2000000D03*
D53*
X118540000Y18460000D03*
D53*
X113460000Y23540000D03*
D53*
X113460000Y18460000D03*
D53*
X118540000Y23540000D03*
D54*
X116000000Y21000000D03*
D25*
X34615000Y8750000D03*
D25*
X37885000Y8750000D03*
D24*
X37000000Y11000000D03*
D24*
X35500000Y11000000D03*
D55*
X86750000Y-15000000D03*
D55*
X95250000Y-15000000D03*
D20*
X47000000Y-2000000D03*
D20*
X45500000Y-2000000D03*
D24*
X37000000Y12250000D03*
D24*
X35500000Y12250000D03*
D11*
X81250000Y-4500000D03*
D11*
X82750000Y-4500000D03*
D24*
X88250000Y-2000000D03*
D24*
X86750000Y-2000000D03*
D10*
X44750000Y-21750000D03*
D10*
X44750000Y-23250000D03*
D15*
X123500000Y28500000D03*
D23*
X44250000Y-500000D03*
D23*
X44250000Y1000000D03*
D10*
X32750000Y-17000000D03*
D10*
X32750000Y-18500000D03*
D10*
X40250000Y4750000D03*
D10*
X40250000Y3250000D03*
D12*
X86750000Y3000000D03*
D12*
X88250000Y3000000D03*
D17*
X40193000Y-2000000D03*
D18*
X36307000Y-1500000D03*
D18*
X36307000Y-500000D03*
D18*
X36307000Y-1000000D03*
D56*
X38250000Y-1000000D03*
D57*
X38250000Y943000D03*
D18*
X36307000Y0D03*
D57*
X37250000Y943000D03*
D58*
X39250000Y-2943000D03*
D17*
X40193000Y-500000D03*
D17*
X40193000Y0D03*
D58*
X38250000Y-2943000D03*
D57*
X37750000Y943000D03*
D17*
X40193000Y-1000000D03*
D18*
X36307000Y-2000000D03*
D58*
X38750000Y-2943000D03*
D58*
X37250000Y-2943000D03*
D58*
X37750000Y-2943000D03*
D57*
X39250000Y943000D03*
D17*
X40193000Y-1500000D03*
D57*
X38750000Y943000D03*
D59*
X29750000Y-14190000D03*
D59*
X29750000Y-21810000D03*
D60*
X14300000Y4000000D03*
D60*
X16700000Y3050000D03*
D60*
X14300000Y4950000D03*
D60*
X16700000Y4950000D03*
D60*
X14300000Y3050000D03*
D61*
X6000000Y18750000D03*
D61*
X6000000Y17750000D03*
D62*
X1250000Y13680000D03*
D61*
X6000000Y16750000D03*
D61*
X6000000Y16250000D03*
D61*
X6000000Y19250000D03*
D63*
X6000000Y21200000D03*
D61*
X6000000Y19750000D03*
D61*
X6000000Y18250000D03*
D64*
X4930000Y15110000D03*
D64*
X4930000Y20890000D03*
D62*
X1250000Y22320000D03*
D63*
X6000000Y14800000D03*
D65*
X5430000Y22320000D03*
D63*
X6000000Y20400000D03*
D65*
X5430000Y13680000D03*
D61*
X6000000Y17250000D03*
D63*
X6000000Y15600000D03*
D11*
X81250000Y4250000D03*
D11*
X82750000Y4250000D03*
D10*
X42750000Y-6000000D03*
D10*
X42750000Y-7500000D03*
D66*
X99700000Y2425000D03*
D66*
X105100000Y2425000D03*
D66*
X99700000Y-1925000D03*
D66*
X107300000Y2425000D03*
D66*
X107300000Y-1925000D03*
D66*
X105100000Y-1925000D03*
D66*
X102900000Y-1925000D03*
D66*
X102900000Y2425000D03*
D67*
X28700000Y4250000D03*
D67*
X28700000Y4750000D03*
D68*
X26800000Y5750000D03*
D68*
X26800000Y5250000D03*
D67*
X28700000Y5250000D03*
D68*
X26800000Y4250000D03*
D67*
X28700000Y5750000D03*
D69*
X27750000Y5000000D03*
D68*
X26800000Y4750000D03*
D30*
X20250000Y21750000D03*
D30*
X20250000Y23250000D03*
D30*
X83500000Y-15750000D03*
D30*
X83500000Y-14250000D03*
D10*
X41500000Y-6000000D03*
D10*
X41500000Y-7500000D03*
D30*
X71000000Y-15750000D03*
D30*
X71000000Y-14250000D03*
D12*
X28250000Y-11250000D03*
D12*
X29750000Y-11250000D03*
D70*
X67725000Y-12925000D03*
D70*
X65775000Y-12925000D03*
D71*
X67075000Y-17075000D03*
D70*
X67075000Y-12925000D03*
D71*
X65775000Y-17075000D03*
D71*
X67725000Y-17075000D03*
D71*
X66425000Y-17075000D03*
D70*
X66425000Y-12925000D03*
D30*
X20250000Y11000000D03*
D30*
X20250000Y12500000D03*
D24*
X22624997Y-11249999D03*
D24*
X21124997Y-11249999D03*
D12*
X35500000Y21750000D03*
D12*
X37000000Y21750000D03*
D10*
X34250000Y-17000000D03*
D10*
X34250000Y-18500000D03*
D72*
X37885000Y25500000D03*
D72*
X34615000Y25500000D03*
D73*
X13865000Y-7020000D03*
D73*
X13865000Y-4480000D03*
D74*
X15516000Y-8290000D03*
D73*
X15135000Y-4480000D03*
D73*
X15135000Y-5750000D03*
D73*
X13865000Y-5750000D03*
D73*
X15135000Y-7020000D03*
D74*
X13484000Y-8290000D03*
D74*
X14500000Y-3210000D03*
D75*
X2825000Y-7250000D03*
D75*
X3925000Y-8750000D03*
D75*
X2825000Y-8750000D03*
D75*
X3925000Y-7250000D03*
D30*
X47250000Y20000000D03*
D30*
X47250000Y21500000D03*
D12*
X84000000Y4250000D03*
D12*
X85500000Y4250000D03*
D10*
X53250000Y-4750000D03*
D10*
X53250000Y-6250000D03*
D10*
X14187499Y12562497D03*
D10*
X14187499Y11062497D03*
D76*
X50475000Y1171500D03*
D76*
X49175000Y1171500D03*
D76*
X49825000Y1171500D03*
D76*
X48525000Y1171500D03*
D77*
X48525000Y-3171500D03*
D77*
X49825000Y-3171500D03*
D77*
X49175000Y-3171500D03*
D77*
X50475000Y-3171500D03*
D17*
X39698000Y-13000000D03*
D18*
X36802000Y-12500000D03*
D18*
X36802000Y-11500000D03*
D19*
X38250000Y-12500000D03*
D17*
X39698000Y-13500000D03*
D18*
X36802000Y-12000000D03*
D18*
X36802000Y-13500000D03*
D17*
X39698000Y-11500000D03*
D17*
X39698000Y-12000000D03*
D17*
X39698000Y-12500000D03*
D18*
X36802000Y-13000000D03*
D10*
X42750000Y-11000000D03*
D10*
X42750000Y-12500000D03*
D10*
X41750000Y-23250000D03*
D10*
X41750000Y-24750000D03*
D11*
X66250000Y-4750000D03*
D11*
X67750000Y-4750000D03*
D24*
X67500000Y-9500000D03*
D24*
X66000000Y-9500000D03*
D14*
X45750000Y10750000D03*
D14*
X45750000Y9250000D03*
D20*
X11750000Y4000000D03*
D20*
X10250000Y4000000D03*
D12*
X28500000Y3125000D03*
D12*
X30000000Y3125000D03*
D12*
X86750000Y-3250000D03*
D12*
X88250000Y-3250000D03*
D24*
X85500000Y-4500000D03*
D24*
X84000000Y-4500000D03*
D30*
X70500000Y-3000000D03*
D30*
X70500000Y-1500000D03*
D10*
X45750000Y13500000D03*
D10*
X45750000Y12000000D03*
D30*
X44750000Y-26250000D03*
D30*
X44750000Y-24750000D03*
D78*
X63845000Y-2700000D03*
D78*
X66385000Y-2700000D03*
D79*
X66385000Y2700000D03*
D78*
X67655000Y-2700000D03*
D79*
X63845000Y2700000D03*
D79*
X67655000Y2700000D03*
D79*
X65115000Y2700000D03*
D78*
X65115000Y-2700000D03*
D39*
X21850000Y8750000D03*
D39*
X21850000Y12750000D03*
D40*
X32650000Y10750000D03*
D39*
X21850000Y10750000D03*
D40*
X32650000Y14750000D03*
D39*
X21850000Y14750000D03*
D40*
X32650000Y12750000D03*
D40*
X32650000Y8750000D03*
D12*
X10263543Y10153055D03*
D12*
X11763543Y10153055D03*
D15*
X123500000Y-28500000D03*
D23*
X77000000Y1250000D03*
D23*
X77000000Y2750000D03*
D10*
X14150001Y23399997D03*
D10*
X14150001Y21899997D03*
D20*
X50250000Y3000000D03*
D20*
X48750000Y3000000D03*
D12*
X10250000Y11750000D03*
D12*
X11750000Y11750000D03*
D24*
X22000000Y3350000D03*
D24*
X20500000Y3350000D03*
D10*
X69250000Y-1500000D03*
D10*
X69250000Y-3000000D03*
D23*
X69500000Y-13250000D03*
D23*
X69500000Y-11750000D03*
D12*
X33491170Y-23235630D03*
D12*
X34991170Y-23235630D03*
D14*
X74250000Y2750000D03*
D14*
X74250000Y1250000D03*
D72*
X37885000Y19500000D03*
D72*
X34615000Y19500000D03*
D24*
X77000000Y-4000000D03*
D24*
X75500000Y-4000000D03*
D13*
X3500000Y11000000D03*
D13*
X7500000Y11000000D03*
D30*
X26462500Y-25412500D03*
D30*
X26462500Y-23912500D03*
D24*
X37750000Y-25000000D03*
D24*
X36250000Y-25000000D03*
D80*
X23750000Y-9750000D03*
D81*
X19250000Y-2750000D03*
D81*
X19250000Y-6750000D03*
D82*
X30750000Y-4250000D03*
D81*
X19250000Y-5250000D03*
D83*
X28250000Y1750000D03*
D83*
X27750000Y1750000D03*
D82*
X30750000Y-2250000D03*
D83*
X25750000Y1750000D03*
D83*
X21250000Y1750000D03*
D81*
X19250000Y-7750000D03*
D81*
X19250000Y-4750000D03*
D83*
X26250000Y1750000D03*
D81*
X19250000Y-4250000D03*
D83*
X22250000Y1750000D03*
D80*
X27750000Y-9750000D03*
D82*
X30750000Y-3750000D03*
D80*
X28750000Y-9750000D03*
D80*
X22750000Y-9750000D03*
D83*
X23750000Y1750000D03*
D83*
X25250000Y1750000D03*
D82*
X30750000Y-5750000D03*
D82*
X30750000Y-5250000D03*
D83*
X28750000Y1750000D03*
D81*
X19250000Y-3750000D03*
D80*
X22250000Y-9750000D03*
D80*
X23250000Y-9750000D03*
D81*
X19250000Y-5750000D03*
D81*
X19250000Y-7250000D03*
D80*
X25250000Y-9750000D03*
D80*
X26250000Y-9750000D03*
D81*
X19250000Y-1250000D03*
D82*
X30750000Y-4750000D03*
D80*
X24750000Y-9750000D03*
D83*
X24250000Y1750000D03*
D81*
X19250000Y-250000D03*
D81*
X19250000Y-3250000D03*
D80*
X26750000Y-9750000D03*
D83*
X26750000Y1750000D03*
D80*
X21750000Y-9750000D03*
D80*
X27250000Y-9750000D03*
D83*
X23250000Y1750000D03*
D81*
X19250000Y-2250000D03*
D83*
X27250000Y1750000D03*
D82*
X30750000Y-7750000D03*
D81*
X19250000Y-1750000D03*
D80*
X25750000Y-9750000D03*
D80*
X24250000Y-9750000D03*
D82*
X30750000Y-1750000D03*
D82*
X30750000Y-1250000D03*
D82*
X30750000Y-6750000D03*
D80*
X28250000Y-9750000D03*
D83*
X21750000Y1750000D03*
D81*
X19250000Y-750000D03*
D82*
X30750000Y-250000D03*
D80*
X21250000Y-9750000D03*
D82*
X30750000Y-750000D03*
D82*
X30750000Y-7250000D03*
D81*
X19250000Y-6250000D03*
D82*
X30750000Y-3250000D03*
D83*
X22750000Y1750000D03*
D83*
X24750000Y1750000D03*
D82*
X30750000Y-2750000D03*
D82*
X30750000Y-6250000D03*
D24*
X75750000Y0D03*
D24*
X74250000Y0D03*
D10*
X52000000Y-4750000D03*
D10*
X52000000Y-6250000D03*
D30*
X83500000Y-18750000D03*
D30*
X83500000Y-17250000D03*
D10*
X45750000Y2500000D03*
D10*
X45750000Y1000000D03*
D11*
X7750000Y-8750000D03*
D11*
X9250000Y-8750000D03*
D23*
X43250000Y-23250000D03*
D23*
X43250000Y-21750000D03*
D30*
X70500000Y1500000D03*
D30*
X70500000Y3000000D03*
D24*
X27000000Y3125000D03*
D24*
X25500000Y3125000D03*
D11*
X10250000Y18000000D03*
D11*
X11750000Y18000000D03*
D24*
X80000000Y4250000D03*
D24*
X78500000Y4250000D03*
D84*
X75050000Y-16910000D03*
D85*
X79000000Y-15000000D03*
D84*
X75050000Y-14360000D03*
D84*
X75050000Y-15640000D03*
D84*
X75050000Y-13090000D03*
D14*
X74250000Y-1250000D03*
D14*
X74250000Y-2750000D03*
D24*
X88250000Y1750000D03*
D24*
X86750000Y1750000D03*
D61*
X6000000Y750000D03*
D61*
X6000000Y-250000D03*
D62*
X1250000Y-4320000D03*
D61*
X6000000Y-1250000D03*
D61*
X6000000Y-1750000D03*
D61*
X6000000Y1250000D03*
D63*
X6000000Y3200000D03*
D61*
X6000000Y1750000D03*
D61*
X6000000Y250000D03*
D64*
X4930000Y-2890000D03*
D64*
X4930000Y2890000D03*
D62*
X1250000Y4320000D03*
D63*
X6000000Y-3200000D03*
D65*
X5430000Y4320000D03*
D63*
X6000000Y2400000D03*
D65*
X5430000Y-4320000D03*
D61*
X6000000Y-750000D03*
D63*
X6000000Y-2400000D03*
D15*
X3500000Y28500000D03*
D30*
X32500000Y-1000000D03*
D30*
X32500000Y500000D03*
D86*
X120750000Y-5250000D03*
D87*
X120750000Y-1750000D03*
D88*
X121650000Y-9550000D03*
D88*
X121650000Y9550000D03*
D87*
X120750000Y1750000D03*
D87*
X120750000Y5250000D03*
D30*
X13000000Y3250000D03*
D30*
X13000000Y4750000D03*
D12*
X86750000Y500000D03*
D12*
X88250000Y500000D03*
D14*
X73250000Y-14250000D03*
D14*
X73250000Y-15750000D03*
D12*
X35500000Y23000000D03*
D12*
X37000000Y23000000D03*
D89*
X84775000Y1625000D03*
D90*
X79225000Y1625000D03*
D90*
X79225000Y325000D03*
D89*
X84775000Y-975000D03*
D90*
X79225000Y2275000D03*
D90*
X79225000Y-975000D03*
D89*
X84775000Y-1625000D03*
D89*
X84775000Y-2925000D03*
D89*
X84775000Y325000D03*
D91*
X82000000Y0D03*
D89*
X84775000Y-325000D03*
D90*
X79225000Y975000D03*
D90*
X79225000Y-2925000D03*
D90*
X79225000Y-2275000D03*
D89*
X84775000Y2275000D03*
D89*
X84775000Y975000D03*
D90*
X79225000Y2925000D03*
D90*
X79225000Y-325000D03*
D90*
X79225000Y-1625000D03*
D89*
X84775000Y2925000D03*
D89*
X84775000Y-2275000D03*
M02*
