M48
FMAT,2
METRIC,TZ
T2C0.200
T8C0.250
T6C0.300
T5C0.600
T4C1.000
T7C1.200
T3C1.700
T1C3.400
%
G90
G05
M71
T2
X41.650Y12.800
X42.350Y12.100
X42.350Y12.800
X41.650Y10.700
X41.650Y12.100
X42.350Y11.400
X41.650Y11.400
X42.350Y10.700
X41.650Y23.550
X42.350Y22.850
X42.350Y23.550
X41.650Y21.450
X41.650Y22.850
X42.350Y22.150
X41.650Y22.150
X42.350Y21.450
X27.750Y4.600
X27.750Y5.400
X82.000Y1.000
X81.000Y-1.000
X82.000Y2.000
X82.000Y-2.000
X81.000Y2.000
X81.000Y0.000
X81.000Y-2.000
X83.000Y-2.000
X82.000Y0.000
X81.000Y1.000
X83.000Y0.000
X83.000Y-1.000
X83.000Y2.000
X83.000Y1.000
X82.000Y-1.000
X13.086Y-5.550
X29.500Y-7.250
X24.750Y-19.000
X33.500Y-13.000
X33.500Y-2.000
X17.750Y-5.500
X22.250Y0.500
X33.500Y-5.750
X17.750Y-3.800
X34.250Y-19.500
X20.750Y-3.750
X35.000Y-8.750
X25.750Y-8.500
X24.300Y-5.194
X32.750Y-3.000
X21.800Y-8.300
X33.500Y-8.000
X34.250Y-6.250
X32.750Y-6.750
X5.000Y0.250
X5.000Y-0.750
X22.750Y-0.500
X35.000Y1.000
X33.500Y-20.000
X32.000Y-21.500
X15.250Y18.750
X17.750Y-4.500
X32.750Y-12.250
X10.000Y-5.750
X10.014Y-7.264
X10.000Y-6.500
X32.750Y-20.500
X24.000Y-18.000
X11.000Y0.750
X15.250Y8.000
X24.750Y-20.000
X24.750Y-8.500
X11.000Y-0.750
T8
X72.000Y30.750
X39.250Y3.250
X84.000Y3.500
X92.000Y30.750
X75.000Y-17.750
X82.000Y-30.750
X19.500Y3.250
X125.750Y20.000
X125.750Y0.000
X13.125Y-9.875
X13.000Y5.500
X74.000Y-9.250
X71.500Y-1.500
X32.000Y30.750
X85.750Y-0.750
X7.500Y9.500
X22.000Y-30.750
X52.000Y-30.750
X80.000Y-3.750
X44.750Y25.000
X38.000Y24.000
X65.500Y-16.000
X27.212Y-23.913
X125.750Y-20.000
X122.000Y30.750
X21.725Y-11.750
X13.000Y-4.500
X14.187Y10.312
X125.750Y30.000
X16.500Y4.000
X85.750Y0.750
X52.000Y30.750
X43.000Y-2.250
X45.000Y14.500
X20.500Y24.000
X1.250Y0.000
X25.500Y4.000
X32.500Y1.250
X27.500Y-15.000
X38.100Y12.800
X30.000Y4.000
X50.286Y-9.000
X125.750Y10.000
X80.250Y6.500
X40.500Y-7.000
X35.750Y-14.000
X31.750Y-30.750
X1.250Y-10.000
X8.250Y-4.250
X20.500Y13.250
X40.500Y-12.000
X43.250Y-0.500
X38.850Y12.800
X38.750Y24.000
X100.750Y2.500
X85.750Y0.250
X36.802Y-5.802
X125.750Y-10.000
X125.750Y-30.000
X50.750Y-5.500
X112.000Y-30.750
X31.500Y-18.500
X19.750Y24.000
X11.764Y10.903
X38.750Y22.500
X62.000Y30.750
X47.786Y-18.000
X23.250Y-15.000
X80.000Y3.500
X19.750Y13.250
X45.500Y25.000
X19.375Y-26.875
X30.625Y-11.250
X38.100Y12.050
X14.150Y21.150
X42.000Y30.750
X72.000Y-30.750
X7.500Y12.500
X7.500Y-2.500
X7.000Y15.500
X12.514Y10.903
X78.000Y0.250
X29.500Y4.750
X82.000Y30.750
X46.500Y14.500
X1.500Y23.500
X3.375Y-6.250
X38.000Y23.250
X7.500Y2.500
X22.000Y30.750
X38.750Y23.250
X36.250Y-25.750
X38.850Y12.050
X65.250Y-9.500
X67.000Y4.000
X102.000Y-30.750
X38.100Y11.300
X19.025Y-9.875
X72.500Y-9.250
X44.000Y20.000
X84.250Y-3.750
X92.000Y-30.750
X1.250Y20.000
X122.000Y-30.750
X45.750Y14.500
X100.750Y-2.000
X42.000Y-30.750
X112.000Y30.750
X1.250Y10.000
X86.500Y6.500
X36.802Y-10.802
X7.250Y-9.875
X12.000Y30.750
X85.750Y-0.250
X35.750Y-9.000
X29.500Y5.750
X46.250Y25.000
X44.000Y25.000
X47.750Y1.000
X6.973Y20.273
X13.264Y10.903
X33.750Y3.250
X62.000Y-30.750
X1.500Y24.500
X21.250Y-7.750
X12.000Y-30.750
X11.000Y0.000
X102.000Y30.750
X17.250Y4.000
T6
X79.980Y-15.000
X77.230Y-16.500
X77.230Y-13.500
X79.980Y-16.500
X78.605Y-15.000
X77.230Y-15.000
X79.980Y-13.500
X78.605Y-13.500
X78.605Y-16.500
X20.750Y-27.250
X73.250Y0.000
X3.500Y12.500
X42.750Y20.500
X72.000Y6.650
X26.750Y-1.250
X10.750Y-3.000
X39.500Y-10.000
X92.000Y0.000
X13.000Y-3.500
X41.800Y-21.700
X5.000Y23.500
X13.000Y2.250
X2.750Y5.500
X46.250Y-5.750
X78.000Y-3.250
X108.955Y-10.807
X5.000Y24.500
X47.750Y-3.000
X15.250Y4.000
X69.250Y-4.250
X123.000Y24.000
X34.000Y10.750
X23.431Y-11.617
X41.250Y20.500
X14.250Y6.000
X3.750Y5.500
X39.500Y-18.500
X20.500Y21.000
X41.500Y-20.300
X68.500Y-10.750
X29.500Y-0.750
X36.000Y-5.000
X54.000Y-19.000
X9.500Y10.000
X47.000Y3.500
X51.205Y-27.098
X41.500Y-10.000
X8.000Y22.250
X16.000Y24.500
X82.000Y27.000
X76.750Y0.250
X39.500Y-5.000
X47.000Y12.000
X111.250Y-16.500
X36.250Y-27.250
X21.500Y-18.000
X123.000Y-1.250
X72.000Y-27.000
X84.000Y-19.750
X37.250Y-2.000
X10.750Y-4.250
X89.250Y0.500
X38.750Y-25.000
X14.250Y7.500
X27.125Y-25.500
X41.750Y3.500
X42.250Y-0.500
X47.250Y22.500
X32.500Y-2.000
X12.500Y17.250
X112.000Y-27.000
X112.000Y27.000
X83.250Y-19.750
X72.750Y-16.750
X3.500Y8.500
X28.250Y-12.500
X9.000Y1.250
X8.000Y14.000
X9.500Y3.750
X18.414Y2.081
X9.500Y4.500
X41.500Y-19.500
X32.500Y-23.250
X4.500Y8.500
X53.375Y-7.375
X77.250Y-0.250
X62.750Y1.500
X34.750Y5.500
X37.000Y-18.500
X70.500Y-4.250
X43.250Y-27.000
X12.500Y18.000
X92.000Y-15.000
X123.000Y-7.375
X45.750Y8.250
X30.750Y-12.500
X38.500Y5.500
X41.500Y-5.250
X64.750Y-16.750
X7.250Y14.000
X71.500Y0.000
X42.000Y20.500
X22.000Y4.500
X36.000Y5.500
X112.000Y-6.000
X119.000Y27.000
X14.150Y24.400
X12.000Y2.000
X70.500Y4.250
X4.000Y-5.250
X68.500Y-13.500
X39.250Y-2.000
X53.250Y-23.250
X4.000Y1.750
X92.000Y10.000
X62.000Y-4.750
X41.000Y9.500
X40.250Y20.000
X68.500Y-16.750
X42.750Y-10.000
X12.000Y-5.500
X119.000Y-27.000
X47.250Y19.000
X81.000Y9.000
X2.500Y9.500
X34.000Y23.500
X7.000Y3.250
X15.250Y13.500
X27.500Y-16.000
X20.630Y-6.984
X38.250Y-19.750
X102.000Y27.000
X23.750Y0.000
X40.000Y-15.500
X82.000Y-27.000
X41.750Y-17.250
X72.250Y-15.250
X45.500Y15.750
X43.250Y-4.000
X123.000Y-20.000
X45.750Y19.250
X61.250Y-3.000
X39.750Y-5.750
X44.500Y-15.500
X40.170Y-2.943
X80.250Y24.500
X37.250Y5.500
X73.750Y-16.750
X35.750Y-17.250
X34.000Y21.500
X92.000Y27.000
X52.000Y3.000
X37.250Y0.000
X4.000Y-1.750
X7.250Y22.250
X14.250Y18.750
X45.500Y26.500
X123.000Y-24.000
X78.000Y3.250
X4.750Y5.500
X89.250Y-2.000
X42.750Y-5.250
X6.935Y-3.425
X44.750Y26.500
X40.000Y9.500
X12.250Y0.000
X44.813Y-20.700
X23.250Y-16.000
X9.500Y11.500
X19.750Y21.000
X68.500Y-17.500
X62.000Y-27.000
X34.000Y1.000
X4.500Y12.500
X45.313Y-27.200
X26.750Y-8.500
X43.000Y0.500
X17.750Y-6.250
X69.500Y-11.000
X39.500Y20.000
X46.250Y15.750
X34.000Y12.750
X4.750Y9.500
X44.500Y19.250
X35.750Y-3.500
X19.750Y10.000
X39.250Y0.000
X2.500Y12.500
X16.000Y13.500
X30.750Y-13.750
X29.250Y-2.650
X92.000Y-27.000
X14.187Y13.562
X46.750Y-3.250
X123.000Y20.000
X19.500Y2.000
X44.250Y1.750
X72.000Y27.000
X35.250Y-16.250
X37.000Y-21.000
X44.250Y-4.000
X102.955Y-17.057
X37.500Y-16.393
X2.500Y8.500
X89.250Y1.750
X39.750Y-10.750
X85.750Y3.500
X89.250Y-0.750
X72.250Y-16.250
X45.750Y3.500
X85.500Y-3.750
X20.500Y10.000
X27.250Y-11.250
X38.750Y-24.000
X52.000Y27.000
X69.250Y4.250
X62.000Y27.000
X3.500Y9.500
X123.000Y7.000
X9.000Y-1.250
X31.400Y-16.250
X102.000Y-27.000
X52.125Y-7.375
X68.500Y-9.500
X47.250Y8.250
X39.500Y-21.000
X15.250Y24.500
T5
X0.850Y13.680G85X1.650Y13.680
X0.850Y22.320G85X1.650Y22.320
X4.880Y22.320G85X5.980Y22.320
X4.880Y13.680G85X5.980Y13.680
X0.850Y-4.320G85X1.650Y-4.320
X0.850Y4.320G85X1.650Y4.320
X4.880Y4.320G85X5.980Y4.320
X4.880Y-4.320G85X5.980Y-4.320
T4
X116.000Y21.000
T7
X120.750Y-5.250
X120.750Y-1.750
X120.750Y1.750
X120.750Y5.250
T3
X118.540Y18.460
X113.460Y23.540
X113.460Y18.460
X118.540Y23.540
T1
X3.500Y-28.500
X123.500Y28.500
X123.500Y-28.500
X3.500Y28.500
M30
